<?xml version="1.0" encoding="UTF-8"?>
<svg width="32px" height="32px" viewBox="0 0 32 32" version="1.1" xmlns="http://www.w3.org/2000/svg" xmlns:xlink="http://www.w3.org/1999/xlink">
    <title>Holidays</title>
    <g id="Page-1" stroke="none" stroke-width="1" fill="none" fill-rule="evenodd">
        <g id="Artboard" transform="translate(-419.000000, -184.000000)">
            <g id="Holidays" transform="translate(419.000000, 184.000000)">
                <rect id="Rectangle-Copy-3" x="0" y="0" width="32" height="32"></rect>
                <g id="Holidays-&amp;-Entertaining" transform="translate(2.000000, 2.000000)" fill="#6DCFF6" fill-rule="nonzero">
                    <path d="M15.8481848,0 C16.1794719,0 16.4488449,0.26937738 16.4488449,0.60066998 C16.4488449,0.93150052 16.1794719,1.2008779 15.8481848,1.2008779 L15.8481848,1.2008779 L14.9240924,1.2008779 C14.7457426,1.2008779 14.6006601,1.34642486 14.6006601,1.52477764 L14.6006601,1.52477764 L14.6006601,2.82961765 C16.1891749,3.11701513 17.3729373,4.5211967 17.3729373,6.1453159 C17.3729373,6.3915906 17.3429043,6.6452582 17.2833003,6.8998498 C19.1282508,7.4062608 20.4321452,8.3151207 20.8867987,9.4124986 C23.1739274,9.8509876 24.6728053,11.0407763 24.7615182,12.4777637 C26.5593399,12.5489199 28,14.0334989 28,15.8484463 C28,17.708213 26.4867987,19.2209772 24.6270627,19.2209772 C24.0841584,19.2209772 23.550033,19.0883678 23.0708911,18.8351623 L23.0708911,18.8351623 L22.1407921,26.2608294 C22.0165017,27.2523969 21.1691089,28 20.1687789,28 L20.1687789,28 L7.8307591,28 C6.8308911,28 5.9834983,27.2523969 5.8592079,26.2608294 L5.8592079,26.2608294 L4.929571,18.8351623 C4.449505,19.0879057 3.91584158,19.2209772 3.37293729,19.2209772 C1.51320132,19.2209772 0,17.708213 0,15.8484463 C0,14.0334989 1.44066007,12.5489199 3.23848185,12.4777637 C3.32765677,11.0407763 4.8256106,9.8509876 7.1132013,9.4124986 C7.5678548,8.3151207 8.8712871,7.4062608 10.7162376,6.8998498 C10.6570957,6.6443341 10.6270627,6.3911286 10.6270627,6.1453159 C10.6270627,4.5211967 11.810363,3.11701513 13.3993399,2.82961765 L13.3993399,2.82961765 L13.3993399,1.52477764 C13.3993399,0.68383967 14.0831683,0 14.9240924,0 L14.9240924,0 L15.8481848,0 Z M19.8924752,18.523276 C19.3791419,19.7763659 18.1454785,20.6071387 16.7722772,20.6071387 C15.670297,20.6071387 14.6274587,20.0554465 14,19.1535174 C13.3725413,20.0554465 12.329703,20.6071387 11.2277228,20.6071387 C9.8545215,20.6071387 8.620396,19.7763659 8.1079868,18.523276 C7.4856106,18.8166801 6.7380198,18.8282315 6.1050165,18.5570059 L6.1050165,18.5570059 L7.0512871,26.111586 C7.100264,26.5034076 7.4352475,26.7991221 7.8307591,26.7991221 L7.8307591,26.7991221 L20.1687789,26.7991221 C20.5642904,26.7991221 20.899736,26.5029456 20.9487129,26.1111239 L20.9487129,26.1111239 L21.8945215,18.5570059 C21.2629043,18.8273074 20.5148515,18.8162181 19.8924752,18.523276 Z M8.3251023,20.3441377 C8.6476106,20.2739055 8.9696568,20.4776712 9.041736,20.8006469 L9.041736,20.8006469 L9.9658284,24.9591313 C10.0004818,25.1153055 9.972297,25.2765623 9.8863564,25.4119441 C9.7999538,25.5473259 9.6664224,25.6411228 9.5097888,25.6757768 C9.4658944,25.68548 9.422,25.6901005 9.3790297,25.6901005 C9.0953333,25.6901005 8.8546073,25.4964999 8.7931551,25.2197297 L8.7931551,25.2197297 L7.8690627,21.0612452 C7.8344092,20.904609 7.8625941,20.7433522 7.9485347,20.6084325 C8.0349373,20.4730507 8.1684686,20.3787917 8.3251023,20.3441377 Z M19.5810154,20.3315199 L19.6751287,20.3442763 C19.998099,20.4163567 20.2023234,20.7374841 20.1311683,21.0609218 L20.1311683,21.0609218 L19.2070759,25.2198683 C19.1465479,25.4924801 18.9002772,25.6897771 18.6207393,25.6897771 C18.5773069,25.6897771 18.5338746,25.6856186 18.4909043,25.6759154 C18.1670099,25.603835 17.9623234,25.2822456 18.0339406,24.95927 L18.0339406,24.95927 L18.958033,20.8003234 C18.9926865,20.6436872 19.0864818,20.5101536 19.2218614,20.4242116 C19.3572409,20.3378076 19.5189571,20.3110084 19.6751287,20.3442763 L19.5810154,20.3315199 Z M13.9999538,20.3300913 C14.3312409,20.3300913 14.6006139,20.5994686 14.6006139,20.9307612 L14.6006139,20.9307612 L14.6006139,25.0892457 C14.6006139,25.4205383 14.3312409,25.6899157 13.9999538,25.6899157 C13.6686667,25.6899157 13.3992937,25.4205383 13.3992937,25.0892457 L13.3992937,25.0892457 L13.3992937,20.9307612 C13.3992937,20.5994686 13.6686667,20.3300913 13.9999538,20.3300913 Z M16.38,7.9098995 C14.8469307,7.5887721 13.1516832,7.5887721 11.6139934,7.9112857 C9.7191419,8.308652 8.3630363,9.1579069 8.1592739,10.0741596 C8.1056766,10.3148897 7.9056106,10.5006353 7.6621122,10.5375996 C5.8227063,10.8134458 4.4356436,11.7061338 4.4356436,12.6140695 C4.4356436,12.7175696 4.4545875,12.8229179 4.4924752,12.92688 C4.5659406,13.1311078 4.5238944,13.3602865 4.3815842,13.5243156 C4.239736,13.6883447 4.0188779,13.7641215 3.80726073,13.7197644 C3.66679868,13.691117 3.52079208,13.6763313 3.37293729,13.6763313 C2.17531353,13.6763313 1.20132013,14.6508028 1.20132013,15.8484463 C1.20132013,17.0456278 2.17531353,18.0200993 3.37293729,18.0200993 C3.97636964,18.0200993 4.5386799,17.7729005 4.9572937,17.3242463 L4.9572937,17.3242463 L4.9730033,17.3076123 C5.0344554,17.2456971 5.0875908,17.1819337 5.1310231,17.1186323 C5.2372937,16.9624581 5.4133333,16.8640407 5.6032343,16.8557237 C5.8023762,16.8538755 5.9779538,16.9328867 6.0957756,17.0802819 C6.340198,17.3838512 6.6950495,17.5580455 7.0693069,17.5580455 C7.4283168,17.5580455 7.7716172,17.3958646 8.0114191,17.1135497 C8.1675908,16.9291903 8.4184818,16.8566478 8.649505,16.9291903 C8.8805281,17.0017327 9.0445545,17.2041123 9.0676568,17.4457664 C9.1739274,18.5634746 10.1026403,19.4062608 11.2277228,19.4062608 C12.4253465,19.4062608 13.3993399,18.4317893 13.3993399,17.2346078 C13.3993399,16.9033152 13.6687129,16.6339379 14,16.6339379 C14.3312871,16.6339379 14.6006601,16.9033152 14.6006601,17.2346078 C14.6006601,18.4317893 15.5746535,19.4062608 16.7722772,19.4062608 C17.8968977,19.4062608 18.8256106,18.5634746 18.9328053,17.4457664 C18.9554455,17.2045743 19.1190099,17.0017327 19.350495,16.9291903 C19.5805941,16.858034 19.8319472,16.9305764 19.9885809,17.1135497 C20.2279208,17.3958646 20.5716832,17.5580455 20.9306931,17.5580455 C21.3044884,17.5580455 21.6593399,17.3838512 21.9042244,17.0798198 C22.0225083,16.9328867 22.2027063,16.8589581 22.3939934,16.8557237 C22.5862046,16.8640407 22.7627063,16.9624581 22.8689769,17.1186323 C22.9114851,17.1810096 22.9646205,17.2452351 23.0283828,17.3094606 L23.0283828,17.3094606 L23.0473267,17.3311771 C23.4742574,17.7784452 24.0305611,18.0200993 24.6270627,18.0200993 C25.8246865,18.0200993 26.7986799,17.0456278 26.7986799,15.8484463 C26.7986799,14.6508028 25.8246865,13.6763313 24.6270627,13.6763313 C24.47967,13.6763313 24.3332013,13.691117 24.1932013,13.7197644 C23.979736,13.7618113 23.7593399,13.6874206 23.6179538,13.5243156 C23.4761056,13.3598244 23.4340594,13.1311078 23.5075248,12.92688 C23.5454125,12.8233799 23.5643564,12.7180317 23.5643564,12.6140695 C23.5643564,11.7061338 22.1772937,10.8134458 20.3378878,10.5375996 C20.0939274,10.5006353 19.8943234,10.3144276 19.8407261,10.0736976 C19.6369637,9.1602172 18.2877888,8.3132725 16.4007921,7.91452 L16.4007921,7.91452 L16.38,7.9098995 Z M14,3.97320088 C12.8023762,3.97320088 11.8283828,4.9476724 11.8283828,6.1453159 C11.8283828,6.3130415 11.8473267,6.4784567 11.8842904,6.6387894 C12.5713531,6.5255862 13.2819802,6.4687536 14,6.4687536 C14.7180198,6.4687536 15.4291089,6.5255862 16.1157096,6.6387894 C16.1526733,6.4784567 16.1716172,6.3130415 16.1716172,6.1453159 C16.1716172,4.9476724 15.1976238,3.97320088 14,3.97320088 Z" id="Combined-Shape"></path>
                </g>
            </g>
        </g>
    </g>
</svg>