<?xml version="1.0" encoding="UTF-8"?>
<svg width="32px" height="32px" viewBox="0 0 32 32" version="1.1" xmlns="http://www.w3.org/2000/svg" xmlns:xlink="http://www.w3.org/1999/xlink">
    <title>Products</title>
    <g id="Page-1" stroke="none" stroke-width="1" fill="none" fill-rule="evenodd">
        <g id="Artboard" transform="translate(-202.000000, -184.000000)">
            <g id="Products" transform="translate(202.000000, 184.000000)">
                <rect id="Rectangle" x="0" y="0" width="32" height="32"></rect>
                <g transform="translate(1.000000, 8.000000)" fill="#6DCFF6" fill-rule="nonzero" id="Combined-Shape">
                    <path d="M26.9761387,0 C27.232644,0 27.5782965,0.134396252 27.7675271,0.775264114 L27.7675271,0.775264114 L30.9595931,12.8212076 C30.9914077,12.971 31.0189141,13.1002641 30.9831227,13.2381887 C30.9861053,13.4473207 30.9861053,13.6477924 30.9145224,13.8546793 L30.9145224,13.8546793 L30.814439,14.1151321 L30.0512197,16.0085472 C29.7990226,16.6022641 29.2558544,17 28.6994301,17 L28.6994301,17 L2.28667515,17 C1.70738411,17 1.1768092,16.6109246 0.934554194,16.0082264 L0.934554194,16.0082264 L0.0742340929,13.8944528 C0.0344658245,13.6785849 0,13.4790754 0,13.2471698 C0,13.109566 0.0228667503,12.9546415 0.0692630553,12.7746981 L0.0692630553,12.7746981 L3.25072414,0.777830224 C3.35842985,0.292207576 3.65470341,0 4.04310678,0 L4.04310678,0 L26.9761387,0 Z M30.0107886,13.8566037 L1.00845688,13.8566037 L1.02005595,13.885151 L1.71732618,15.7156981 C1.83397975,15.9986037 2.0686125,16.1981132 2.28667515,16.1981132 L2.28667515,16.1981132 L28.6994301,16.1981132 C28.9174928,16.1981132 29.1521256,15.9986037 29.2697733,15.7131321 L29.2697733,15.7131321 L30.0107886,13.8566037 Z M27.1348804,1.77120758 L26.515821,3.78747169 L28.8190663,13.054717 L30.1320818,13.054717 C30.1284364,13.0396415 30.1257852,13.0226415 30.1251224,13.0040377 L30.1251224,13.0040377 L27.1348804,1.77120758 Z M25.7711603,4.26603772 L5.28122539,4.26603772 L3.108884,13.0226415 L27.9435017,13.0226415 L25.7711603,4.26603772 Z M3.88403373,1.73913206 L0.894785925,12.990566 L2.20846423,12.990566 L4.50375584,3.75539625 L3.88403373,1.73913206 Z M23.020055,9.961204 C23.2630534,9.961204 23.4600733,10.1595566 23.4600733,10.4046823 C23.4600733,10.6498079 23.2630534,10.8481605 23.020055,10.8481605 L23.020055,10.8481605 L7.83232605,10.8481605 C7.58932757,10.8481605 7.39230772,10.6498079 7.39230772,10.4046823 C7.39230772,10.1595566 7.58932757,9.961204 7.83232605,9.961204 L7.83232605,9.961204 L23.020055,9.961204 Z M23.020055,7.00468227 C23.2630534,7.00468227 23.4600733,7.20303487 23.4600733,7.44816054 C23.4600733,7.69328621 23.2630534,7.89163881 23.020055,7.89163881 L23.020055,7.89163881 L7.83232605,7.89163881 C7.58932757,7.89163881 7.39230772,7.69328621 7.39230772,7.44816054 C7.39230772,7.20303487 7.58932757,7.00468227 7.83232605,7.00468227 L7.83232605,7.00468227 L23.020055,7.00468227 Z M26.5111814,0.833641548 L4.47492385,0.833641548 L5.27691716,3.43207544 L25.7088567,3.43207544 L26.5111814,0.833641548 Z"></path>
                </g>
            </g>
        </g>
    </g>
</svg>