<?xml version="1.0" encoding="UTF-8"?>
<svg width="32px" height="32px" viewBox="0 0 32 32" version="1.1" xmlns="http://www.w3.org/2000/svg" xmlns:xlink="http://www.w3.org/1999/xlink">
    <title>Recipes</title>
    <g id="Page-1" stroke="none" stroke-width="1" fill="none" fill-rule="evenodd">
        <g id="Artboard" transform="translate(-274.000000, -184.000000)">
            <g id="Recipes" transform="translate(274.000000, 184.000000)">
                <rect id="Rectangle-Copy" x="0" y="0" width="32" height="32"></rect>
                <g transform="translate(1.000000, 3.000000)" fill="#6DCFF6" fill-rule="nonzero" id="Combined-Shape-Copy">
                    <path d="M29.5,0 C29.7763672,0 30,0.219180227 30,0.489510491 L30,0.489510491 L30,24.965035 C30,25.2353652 29.7763672,25.4545455 29.5,25.4545455 L29.5,25.4545455 L11.5,25.4545455 C11.2236328,25.4545455 11,25.2353652 11,24.965035 L11,24.965035 L11,21.5384615 L3,21.5384615 C2.7236328,21.5384615 2.5,21.3192813 2.5,21.0489511 L2.5,21.0489511 L2.5,9.25982709 C1.0830078,9.02606673 0,7.81639255 0,6.36363636 C0,4.77153218 1.37402345,3.42657343 3,3.42657343 C3.97998045,3.42657343 4.89941405,3.89648436 5.45996095,4.68381227 C6.06396485,3.61061792 7.23486327,2.93706294 8.5,2.93706294 C9.45147709,2.93706294 10.3493347,3.31841741 11,3.96863818 L11,3.96863818 L11,0.489510491 C11,0.219180227 11.2236328,0 11.5,0 L11.5,0 L29.5,0 Z M29,0.979020982 L12,0.979020982 L12,4.17589736 C12.0668945,4.11829382 12.1357422,4.06403655 12.2075195,4.01336455 C12.7119141,3.63260761 13.3359375,3.42657343 14,3.42657343 C15.6259765,3.42657343 17,4.77153218 17,6.36363636 C17,7.81639255 15.9169922,9.02606673 14.5,9.25982709 L14.5,9.25982709 L14.5,21.0489511 C14.5,21.3192813 14.2763672,21.5384615 14,21.5384615 L14,21.5384615 L12,21.5384615 L12,24.4755245 L29,24.4755245 L29,0.979020982 Z M13.5,19.0909091 L3.5,19.0909091 L3.5,20.5594405 L13.5,20.5594405 L13.5,19.0909091 Z M19.5,6.36363636 C20.8784179,6.36363636 22,7.68110791 22,9.30069927 C22,10.2335896 21.6381836,11.0871258 21.0078125,11.6426055 L21.0078125,11.6426055 L21,18.1460678 C21,18.6671287 20.5673828,19.0909091 20.0351563,19.0909091 L20.0351563,19.0909091 L18.9648437,19.0909091 C18.4326172,19.0909091 18,18.6671287 18,18.1460678 L18,18.1460678 L18,11.6332837 C17.3618164,11.0871258 17,10.2335896 17,9.30069927 C17,7.681108 18.1215821,6.36363636 19.5,6.36363636 Z M26.5,6.36363636 C26.7763672,6.36363636 27,6.58281664 27,6.85314682 L27,6.85314682 L27,9.30069927 C27,9.774315 26.8099671,10.2033836 26.5,10.4763132 L26.5,10.4763132 L26.5,18.072689 C26.5,18.6341442 26.0332032,19.0909091 25.4599609,19.0909091 L25.4599609,19.0909091 L24.5400391,19.0909091 C23.9667969,19.0909091 23.5,18.6341442 23.5,18.072689 L23.5,18.072689 L23.5,10.4763132 C23.1900329,10.2033836 23,9.774315 23,9.30069927 L23,9.30069927 L23,6.85314682 C23,6.58281664 23.2236328,6.36363636 23.5,6.36363636 C23.7763672,6.36363636 24,6.58281664 24,6.85314682 L24,6.85314682 L24,9.30069927 C24,9.545096 24.1091614,9.72866245 24.2128906,9.78172464 C24.2321167,9.788447 24.2437134,9.79020982 24.25,9.79020982 L24.25,9.79020982 L24.5,9.79020982 L24.5,6.85314682 C24.5,6.58281664 24.7236328,6.36363636 25,6.36363636 C25.2763672,6.36363636 25.5,6.58281664 25.5,6.85314682 L25.5,6.85314682 L25.5,9.79020982 L25.75,9.79020982 C25.7562866,9.79020982 25.7678833,9.788447 25.7871094,9.78172464 C25.8908386,9.72866245 26,9.545096 26,9.30069927 L26,9.30069927 L26,6.85314682 C26,6.58281664 26.2236328,6.36363636 26.5,6.36363636 Z M19.5,7.34265736 C18.6728515,7.34265736 18,8.22105145 18,9.30069927 C18,9.94676709 18.2470703,10.5502895 18.6611328,10.9150322 C18.8793945,11.1074424 19,11.3624754 19,11.6332837 L19,11.6332837 L19,18.1460678 L20.0351563,18.1118881 L20,11.6332837 C20,11.3624755 20.1206055,11.1074424 20.3388672,10.9147932 C20.7529297,10.5502895 21,9.94676709 21,9.30069927 C21,8.22105145 20.3271485,7.34265736 19.5,7.34265736 Z M8.5,3.91608391 C7.59667973,3.91608391 6.75976564,4.39794582 6.31591795,5.17356182 C6.152832,5.46157945 5.8515625,5.64466782 5.51123045,5.66139918 C5.16503905,5.67884755 4.8378906,5.52252927 4.63916015,5.24311627 C4.2661133,4.718948 3.65283205,4.40559436 3,4.40559436 C1.9345703,4.40559436 1,5.32055836 1,6.36363636 C1,7.44328427 1.89697265,8.32167836 3,8.32167836 C3.2763672,8.32167836 3.5,8.54085855 3.5,8.81118882 L3.5,8.81118882 L3.5,18.1118881 L13.5,18.1118881 L13.5,8.81118882 C13.5,8.54085855 13.7236328,8.32167836 14,8.32167836 C15.1030274,8.32167836 16,7.44328427 16,6.36363636 C16,5.32055836 15.0654297,4.40559436 14,4.40559436 C13.5585937,4.40559436 13.1455078,4.54135709 12.8051758,4.79806327 C12.6303712,4.922114 12.4848633,5.06887155 12.3603516,5.24359427 C12.1513672,5.53113391 11.8032227,5.68793027 11.4550782,5.65685782 C11.1396485,5.63630218 10.8476563,5.456082 10.6850586,5.175713 C10.2402344,4.39794582 9.40332027,3.91608391 8.5,3.91608391 Z M25.5,10.7692307 L24.5,10.7692307 L24.5,18.072689 C24.5,18.0910935 24.5214844,18.1118881 24.5400391,18.1118881 L24.5400391,18.1118881 L25.4599609,18.1118881 C25.4785156,18.1118881 25.5,18.0910935 25.5,18.072689 L25.5,18.072689 L25.5,10.7692307 Z M7,12.064065 C7.27636718,12.064065 7.5,12.2832452 7.5,12.5535755 L7.5,12.5535755 L7.5,15.4906384 C7.5,15.7609686 7.27636718,15.9801489 7,15.9801489 C6.72363282,15.9801489 6.5,15.7609686 6.5,15.4906384 L6.5,15.4906384 L6.5,12.5535755 C6.5,12.2832452 6.72363282,12.064065 7,12.064065 Z M10,12.064065 C10.2763672,12.064065 10.5,12.2832452 10.5,12.5535755 L10.5,12.5535755 L10.5,15.4906384 C10.5,15.7609686 10.2763672,15.9801489 10,15.9801489 C9.72363282,15.9801489 9.5,15.7609686 9.5,15.4906384 L9.5,15.4906384 L9.5,12.5535755 C9.5,12.2832452 9.72363282,12.064065 10,12.064065 Z"></path>
                </g>
            </g>
        </g>
    </g>
</svg>