<?xml version="1.0" encoding="UTF-8"?>
<svg width="32px" height="32px" viewBox="0 0 32 32" version="1.1" xmlns="http://www.w3.org/2000/svg" xmlns:xlink="http://www.w3.org/1999/xlink">
    <title>Story</title>
    <g id="Page-1" stroke="none" stroke-width="1" fill="none" fill-rule="evenodd">
        <g id="Artboard" transform="translate(-491.000000, -184.000000)">
            <g id="Story" transform="translate(491.000000, 184.000000)">
                <rect id="Rectangle-Copy-4" x="0" y="0" width="32" height="32"></rect>
                <g id="Our-Story" transform="translate(1.000000, 4.000000)" fill="#6DCFF6" fill-rule="nonzero">
                    <path d="M5.4974594,0.0005096 C5.7262067,0.0055595 6.9263058,0.06004583 8.6312872,0.64053191 C9.7109816,1.00816278 10.778639,1.51335469 11.8045406,2.142109 C12.9109445,2.8201335 13.9762775,3.6484542 14.9709868,4.6040663 L14.9709868,4.6040663 L15.0000208,4.6319412 L15.029034,4.6040663 C16.0236602,3.6485154 17.089014,2.820215 18.1954594,2.142109 C19.2215478,1.51329356 20.2891637,1.00808128 21.3687335,0.64053191 C23.073715,0.06004583 24.2737966,0.0055595 24.5025729,0.0005096 L24.5405341,0 C24.8609455,0 25.1216286,0.25592749 25.1216286,0.570539 L25.1216286,0.570539 L25.1216286,4.2092737 L25.1521983,4.2174446 C26.4113056,4.5545313 27.1830406,4.9128094 27.2152706,4.9279083 C27.4164331,5.0219861 27.5463907,5.2241607 27.5463907,5.442942 L27.5463907,5.442942 L27.5463907,7.8143262 L29.4189262,7.8143262 C29.57412,7.8143262 29.7200577,7.8736623 29.8298223,7.981433 C29.9395662,8.0892038 30,8.2324702 30,8.3848652 L30,8.3848652 L30,24.429461 C30,24.7440521 29.7393169,25 29.4189055,25 L29.4189055,25 L0.58109451,25 C0.26066239,25 0,24.7440521 0,24.429461 L0,24.429461 L0,8.3848652 C0,8.0702537 0.26066239,7.8143262 0.58109451,7.8143262 L0.58109451,7.8143262 L2.45363004,7.8143262 L2.45363004,5.442942 C2.45363004,5.2241811 2.58358768,5.0220065 2.78472939,4.9279083 C2.81706315,4.912789 3.59081124,4.5539811 4.84780166,4.2174446 L4.84780166,4.2174446 L4.87841289,4.2092737 L4.87841289,0.570539 C4.87841289,0.25592749 5.139096,0 5.4595074,0 L5.4595074,0 L5.4974594,0.0005096 Z M2.4536508,8.9554042 L1.16220976,8.9554042 L1.16220976,23.858922 L28.837811,23.858922 L28.837811,8.9554042 L27.54637,8.9554042 L27.54637,20.5878793 C27.54637,20.7805789 27.4484763,20.9588112 27.2844416,21.0646461 C27.1894119,21.1259995 27.0790455,21.1584183 26.9652339,21.1584183 L26.9652339,21.1584183 L26.8862581,21.1531846 C26.8342778,21.1462174 26.7835797,21.1323161 26.7348092,21.1116137 C26.7185178,21.1047265 25.0797483,20.4184088 22.8354991,20.0806701 C20.8052794,19.7751058 17.8468235,19.7018934 15.2820384,21.0867138 L15.2820384,21.0867138 C15.1022104,21.1822383 14.893888,21.1817696 14.7198917,21.087753 C12.1445846,19.6964936 9.1725768,19.7748001 7.132852,20.085479 C4.89524388,20.4262741 3.28123314,21.1048284 3.26519078,21.1116341 C3.19201438,21.1426674 3.11450052,21.1584183 3.03478681,21.1584183 C2.9210168,21.1584183 2.8106296,21.1259995 2.71555839,21.0646461 C2.55154447,20.9588112 2.4536508,20.7805789 2.4536508,20.5878793 L2.4536508,20.5878793 L2.4536508,8.9554042 Z M4.87841289,5.3947315 L4.82509747,5.4102379 C4.30155208,5.5626737 3.89273134,5.7114214 3.64196831,5.8093707 L3.6157983,5.8195996 L3.6157983,19.7642859 L3.67060796,19.746049 C4.39932123,19.5036922 5.5605763,19.1702325 6.9546843,18.9578901 C8.3579238,18.7441214 9.7079931,18.6979485 10.9674947,18.8206348 C11.3862355,18.8614283 11.8040217,18.9226594 12.2092521,19.0026571 L12.2092521,19.0026571 L12.3968419,19.0396606 L12.2417519,18.9296688 C11.0811194,18.106483 9.8172804,17.4519117 8.4853495,16.9841309 C6.946811,16.4437769 5.7689279,16.3144384 5.4897934,16.2900418 L5.4349613,16.2856624 L5.4349613,16.2856624 C5.1192766,16.2686342 4.87841289,16.0184121 4.87841289,15.7154763 L4.87841289,15.7154763 L4.87841289,5.3947315 Z M25.1216286,5.3947315 L25.1216286,15.7154559 C25.1216286,16.0183917 24.8802876,16.2686546 24.5720377,16.2851595 C24.5593159,16.2858726 23.279061,16.3644033 21.5146713,16.9840901 C20.1827611,17.451871 18.9189221,18.1064422 17.7582896,18.9296485 L17.7582896,18.9296485 L17.6031789,19.0396402 L17.7907686,19.0026367 C18.196082,18.922639 18.6138682,18.8614079 19.0325261,18.8206144 C20.2920069,18.6979893 21.642097,18.744101 23.0453157,18.9578698 C24.4392784,19.1701714 25.6006165,19.5036514 26.329392,19.7460286 L26.329392,19.7460286 L26.3842017,19.7642655 L26.3842017,5.8195793 L26.3580524,5.8093503 C26.1070819,5.7113602 25.6981159,5.5625718 25.1749233,5.4102379 L25.1749233,5.4102379 L25.1216286,5.3947315 Z M6.0406019,1.190613 L6.0406019,15.2044363 L6.0761524,15.2095101 C6.683666,15.2958856 7.6543429,15.484571 8.8286518,15.8928732 C9.9445608,16.2808804 11.0192951,16.7902291 12.0230321,17.4067984 C12.8454676,17.9119903 13.6281811,18.4957128 14.3494439,19.1417056 L14.3494439,19.1417056 L14.4189262,19.2039351 L14.4189262,5.6746216 L14.4069516,5.6627218 C12.097848,3.3636127 9.8168445,2.2599865 8.309942,1.73902324 L8.309942,1.73902324 L8.0541168,1.65352056 C7.2162772,1.38311603 6.5305702,1.25622499 6.0877121,1.19692969 L6.0877121,1.19692969 L6.0406019,1.190613 Z M23.9594396,1.19057225 L23.9123087,1.19688893 C23.4252062,1.26211377 22.6442567,1.40910906 21.6900995,1.73902324 C20.183197,2.2599865 17.9021727,3.3636127 15.5930692,5.6627218 L15.5930692,5.6627218 L15.5811153,5.6746216 L15.5811153,19.2039351 L15.6505768,19.1417056 C16.3719019,18.4956517 17.1546154,17.9119495 17.9769679,17.406778 C18.9806011,16.7902495 20.0553562,16.2809008 21.1713897,15.8928732 C22.3456779,15.484571 23.3163548,15.2958856 23.9238891,15.2095101 L23.9238891,15.2095101 L23.9594396,15.2044363 L23.9594396,1.19057225 Z M8.1067042,11.0063167 C8.1708321,11.0063167 8.2351676,11.0168717 8.2975315,11.0381039 C9.8232366,11.5575592 11.304654,12.3411334 12.7006298,13.3670644 C12.824901,13.4583914 12.9055071,13.5917549 12.9276095,13.742581 C12.9497118,13.8934274 12.910654,14.0436829 12.8176373,14.1656968 C12.7068351,14.3110212 12.5370932,14.394381 12.3519316,14.394381 C12.2257718,14.394381 12.1055268,14.3550342 12.0042088,14.2805789 C10.7042381,13.3252317 9.3290157,12.5970609 7.9167485,12.1162188 C7.7700844,12.0662966 7.6520185,11.9632736 7.5842795,11.8261608 C7.5165404,11.6890481 7.5072637,11.5342283 7.5581302,11.3902487 C7.608976,11.2462691 7.713905,11.1303478 7.8535753,11.0638189 C7.9338493,11.0255927 8.0200588,11.0063167 8.1067042,11.0063167 Z M21.8923682,11.0066264 C22.1330866,11.0066264 22.358738,11.154722 22.4419383,11.3902527 C22.5468881,11.6875036 22.3860079,12.0131795 22.0832785,12.1162229 C20.671032,12.597065 19.2958304,13.3252561 17.9958389,14.2806033 C17.894521,14.3550586 17.7742759,14.3944055 17.6480954,14.3944055 C17.4629338,14.3944055 17.2932127,14.3110456 17.1824519,14.1657212 C17.0894145,14.0437074 17.0503567,13.8934315 17.0724798,13.7426054 C17.0945614,13.591759 17.1751675,13.4583955 17.2994387,13.3670889 C18.6954352,12.3411375 20.1768527,11.5575837 21.7025163,11.0381283 C21.7653367,11.0167535 21.8293402,11.0066264 21.8923682,11.0066264 Z M8.1066834,7.9168664 C8.1708113,7.9168664 8.2351676,7.9274213 8.2975315,7.9486535 C9.8231743,8.4680682 11.3045918,9.2516423 12.7006298,10.2776141 C12.824901,10.3689207 12.9054864,10.5022842 12.9275887,10.6531306 C12.9496911,10.8039771 12.9106332,10.9542326 12.8176166,11.0762668 C12.7068351,11.2215912 12.5370724,11.3049511 12.3519108,11.3049511 C12.2257511,11.3049511 12.105506,11.2655839 12.004188,11.1911285 C10.7042381,10.2357814 9.3290365,9.5075902 7.9167485,9.0267481 C7.7700844,8.9768259 7.6520185,8.8738029 7.5842795,8.7366901 C7.5165404,8.5995774 7.5072637,8.4447576 7.5581302,8.3007983 C7.608976,8.1567984 7.713905,8.0408771 7.8535753,7.9743685 C7.9338286,7.9361424 8.0200381,7.9168664 8.1066834,7.9168664 Z M21.7025225,7.9486596 C22.0052105,7.8455958 22.3369739,8.0035536 22.4419445,8.3007841 C22.5468943,8.5980145 22.3860142,8.9236904 22.0832847,9.0267542 C20.6709967,9.5075759 19.2957743,10.2357875 17.9958452,11.1911143 C17.8945479,11.26559 17.7743029,11.3049368 17.6481224,11.3049368 C17.4629608,11.3049368 17.2932189,11.2215973 17.1824166,11.0762525 C16.9904272,10.8243799 17.0429124,10.4661018 17.2994034,10.2775998 C18.695483,9.2516485 20.1769004,8.4680946 21.7025225,7.9486596 Z M8.1066834,4.8273957 C8.1708113,4.8273957 8.2351676,4.8379506 8.2975315,4.8591828 C9.8231536,5.3786178 11.3045918,6.162192 12.7006298,7.1881434 C12.9571623,7.3766658 13.0096476,7.7349235 12.8176373,7.9867757 C12.7068351,8.1321205 12.5370932,8.2154804 12.3519316,8.2154804 C12.2257511,8.2154804 12.1055268,8.1761132 12.0042088,8.1016578 C10.7041759,7.1462699 9.3289534,6.4180788 7.9167485,5.9372774 C7.7700844,5.8873552 7.6520185,5.7843526 7.5842795,5.6472194 C7.5165404,5.5101067 7.5072637,5.3553072 7.5581302,5.2113276 C7.608976,5.0673481 7.713905,4.9514064 7.8535753,4.8848978 C7.9338286,4.8466717 8.0200381,4.8273957 8.1066834,4.8273957 Z M21.8923889,4.8276544 C22.1331073,4.8276544 22.3587588,4.9757501 22.4419383,5.2113012 C22.5469089,5.508552 22.3860079,5.8342279 22.0832785,5.9372713 C20.6709905,6.4181338 19.2957889,7.1463249 17.9958389,8.1016517 C17.8945417,8.176107 17.7742967,8.2154742 17.6480954,8.2154742 C17.4629338,8.2154742 17.2932127,8.1321144 17.1824519,7.9867492 C17.0894145,7.8647558 17.0503567,7.7145002 17.0724798,7.5636538 C17.0945614,7.4128074 17.1751675,7.2794439 17.2994387,7.1881169 C18.6954767,6.1621859 20.1768942,5.3786117 21.7025163,4.8591767 C21.7653367,4.8377815 21.8293609,4.8276544 21.8923889,4.8276544 Z" id="Combined-Shape"></path>
                </g>
            </g>
        </g>
    </g>
</svg>