<?xml version="1.0" encoding="UTF-8"?>
<svg width="32px" height="32px" viewBox="0 0 32 32" version="1.1" xmlns="http://www.w3.org/2000/svg" xmlns:xlink="http://www.w3.org/1999/xlink">
    <title>Tips</title>
    <g id="Page-1" stroke="none" stroke-width="1" fill="none" fill-rule="evenodd">
        <g id="Artboard" transform="translate(-347.000000, -184.000000)">
            <g id="Tips" transform="translate(347.000000, 184.000000)">
                <rect id="Rectangle-Copy-2" x="0" y="0" width="32" height="32"></rect>
                <g id="Tips-&amp;--How-Tos" transform="translate(4.000000, 1.000000)" fill="#6DCFF6" fill-rule="nonzero">
                    <path d="M3.93276729,3.05956401 C6.46629729,0.7486384 9.73524268,-0.310722083 13.1425046,0.0791503853 C18.5660706,0.69797981 22.923041,5.16437872 23.5030938,10.6985811 L23.5030938,10.6985811 L23.5364343,11.070597 C23.8327255,15.029475 22.2350595,18.8482929 19.2177168,21.3478111 C18.8899456,21.6189836 18.7019521,22.0143192 18.7019521,22.4325009 L18.7019521,22.4325009 L18.7019521,26.4240996 C18.7019521,28.3958114 17.1288451,30 15.195336,30 L15.195336,30 L8.37691607,30 C6.44340696,30 4.87029996,28.3958114 4.87029996,26.4240996 L4.87029996,26.4240996 L4.87029996,22.4320043 C4.87029996,22.0143192 4.68474161,21.6209701 4.36135371,21.3532742 C1.58966593,19.0607248 1.90323947e-15,15.6591496 1.90323947e-15,12.020671 C1.90323947e-15,8.6051895 1.43332929,5.3392005 3.93276729,3.05956401 Z M17.4595385,27.0200831 L6.11368757,27.0200831 C6.37765789,28.063054 7.31080736,28.8080333 8.37691607,28.8080333 L8.37691607,28.8080333 L15.195336,28.8080333 C16.2619318,28.8080333 17.1950813,28.063054 17.4595385,27.0200831 L17.4595385,27.0200831 Z M17.53308,25.0334717 L6.03917196,25.0334717 L6.03917196,25.8281162 L17.53308,25.8281162 L17.53308,25.0334717 Z M11.7710281,1.19314268 C9.12937736,1.19314268 6.688383,2.14572281 4.71152829,3.94807591 C2.46047561,6.0017354 1.168872,8.94390675 1.168872,12.020671 C1.168872,15.298083 2.60074018,18.3619343 5.09774304,20.42801 C5.69581586,20.9226763 6.03917196,21.652756 6.03917196,22.4320043 L6.03917196,22.4320043 L6.03917196,23.841505 L17.53308,23.841505 L17.53308,22.4325009 C17.53308,21.6537492 17.8788714,20.9211864 18.4808404,20.4225468 C21.2836981,18.1006949 22.726768,14.5128749 22.3405532,10.8252276 C21.8189441,5.84230982 17.8954304,1.82140851 13.0124675,1.26366739 C12.5984921,1.21648537 12.1811073,1.19314268 11.7710281,1.19314268 Z M11.786126,5.96150647 C12.8308054,5.96150647 13.8185022,6.56692629 14.3980679,7.55129218 C14.5266438,7.37845704 14.6693436,7.22598461 14.8237321,7.09586154 C15.2873847,6.6796665 15.8591579,6.45815936 16.4737898,6.45815936 C17.9455945,6.45815936 19.1889821,7.86815668 19.1889821,9.53740682 C19.1889821,10.9851498 18.2977171,12.2357217 17.0582258,12.5451363 L17.0582258,12.5451363 L17.0582258,20.4642657 C17.0582258,20.7930499 16.7962036,21.0602491 16.4737898,21.0602491 L16.4737898,21.0602491 L7.09846232,21.0602491 C6.77653543,21.0602491 6.51402632,20.7930499 6.51402632,20.4642657 L6.51402632,20.4642657 L6.51402632,12.5451363 C5.27502193,12.2357217 4.38327,10.9851498 4.38327,9.53740682 C4.38327,7.86815668 5.62665761,6.45815936 7.09846232,6.45815936 C7.89621739,6.45815936 8.66182854,6.86442129 9.17418418,7.55178879 C9.75423686,6.56692629 10.7419337,5.96150647 11.786126,5.96150647 Z M15.8893537,18.576985 L7.68289832,18.576985 L7.68289832,19.8682824 L15.8893537,19.8682824 L15.8893537,18.576985 Z M11.786126,7.15396993 C11.0867509,7.15396993 10.4321826,7.61188382 10.0781118,8.34941325 C9.91398268,8.6926004 9.60082243,8.90765111 9.23993314,8.92453725 C8.89949925,8.94986657 8.538123,8.74872215 8.34672021,8.42639443 C8.05547625,7.94066797 7.5884145,7.65062272 7.09846232,7.65062272 C6.2748945,7.65062272 5.552142,8.5321815 5.552142,9.53740682 C5.552142,10.5783912 6.24615975,11.4246875 7.09846232,11.4246875 C7.42087618,11.4246875 7.68289832,11.6923834 7.68289832,12.020671 L7.68289832,12.020671 L7.68289832,17.3850182 L15.8893538,17.3850182 L15.8893538,12.020671 C15.8893538,11.6923834 16.1513759,11.4246875 16.4737898,11.4246875 C17.3265793,11.4246875 18.0201101,10.5783912 18.0201101,9.53740682 C18.0201101,8.5321815 17.2978445,7.65062272 16.4737898,7.65062272 C16.1469927,7.65062272 15.8387027,7.77230272 15.5815509,8.00274965 C15.4437213,8.11946304 15.3248861,8.26150575 15.2255319,8.42738775 C15.0341291,8.74822554 14.6766491,8.94639 14.3303708,8.92453725 C13.9714296,8.90765111 13.6577823,8.69210368 13.4936532,8.34792332 C13.1395824,7.61138722 12.4859881,7.15396993 11.786126,7.15396993 Z M10.3251334,11.4249359 C10.6475473,11.4249359 10.9095694,11.6921352 10.9095694,12.0209193 L10.9095694,12.0209193 L10.9095694,15.0008363 C10.9095694,15.3291238 10.6475473,15.5968197 10.3251334,15.5968197 C10.0027196,15.5968197 9.74069743,15.3291238 9.74069743,15.0008363 L9.74069743,15.0008363 L9.74069743,12.0209193 C9.74069743,11.6921352 10.0027196,11.4249359 10.3251334,11.4249359 Z M13.2473134,11.4249359 C13.5697273,11.4249359 13.8317494,11.6921352 13.8317494,12.0209193 L13.8317494,12.0209193 L13.8317494,15.0008363 C13.8317494,15.3291238 13.5697273,15.5968197 13.2473134,15.5968197 C12.9248996,15.5968197 12.6628774,15.3291238 12.6628774,15.0008363 L12.6628774,15.0008363 L12.6628774,12.0209193 C12.6628774,11.6921352 12.9248996,11.4249359 13.2473134,11.4249359 Z" id="Combined-Shape"></path>
                </g>
            </g>
        </g>
    </g>
</svg>